<svg fill="none" height="30" viewBox="0 0 138 30" width="138" xmlns="http://www.w3.org/2000/svg"><g fill="#fff"><path d="m76.7204 5.06484c1.509.00268 2.7343-1.12786 2.7367-2.52514s-1.219-2.53217068-2.728-2.53484953c-1.509-.00267884-2.7343 1.12786953-2.7367 2.52514953-.0024 1.39727 1.219 2.53216 2.728 2.53484z"/><path d="m118.499 1.69684-.112.0002c-1.229.00218-2.224 1.01789-2.222 2.26865l.026 15.56501c.003 1.2507 1.001 2.2629 2.231 2.2607l.111-.0002c1.23-.0022 2.225-1.0179 2.223-2.2686l-.027-15.56501c-.002-1.25076-1.001-2.26293-2.23-2.26075z"/><path d="m109.163 8.60589c.103-1.80852 2.258-2.52353 3.593-1.54161.61.4497.955 1.13558.957 1.88779.002 4.88853.002 9.19633 0 12.92343 0 .8045-.114 1.6079-.342 2.4102-.8 2.8309-2.964 4.6103-5.805 4.9225-3.114.3414-6.303-.372-8.127-3.0622-.6616-.9754-.2576-2.0544.759-2.5219.747-.3418 1.475-.3176 2.182.0728.487.2696.975.577 1.461.9221.626.4443 1.343.6616 2.152.6519 1.633-.0205 2.635-.7436 3.006-2.1693.262-1.0078.15-2.2517.167-3.3081 0-.0127-.004-.0251-.011-.0354s-.018-.018-.029-.022c-.012-.0039-.025-.004-.037 0-.012.0039-.022.0116-.03.0219-1.127 1.5755-2.71 2.3277-4.749 2.2566-2.902-.0987-5.1715-2.0997-5.9556-4.9047-.932-3.3356-.3372-7.77768 2.8686-9.75607 2.509-1.54647 5.963-1.26014 7.832 1.28603.065.08951.101.07819.108-.03397zm-3.262 9.40491c.436-.0031.866-.1042 1.266-.2976.401-.1934.764-.4753 1.069-.8296.306-.3543.547-.774.71-1.2352s.246-.9549.242-1.4528c-.007-1.0056-.362-1.9676-.988-2.6742-.627-.7067-1.472-1.1002-2.351-1.0939-.435.003-.865.1042-1.265.2976-.401.1934-.764.4753-1.069.8295-.306.3543-.547.774-.71 1.2352-.163.4613-.246.9549-.242 1.4528.007 1.0057.362 1.9676.988 2.6743.627.7066 1.472 1.1001 2.35 1.0939z"/><path d="m40.0816 21.746c-2.3872-.5726-4.3259-2.3892-5.0782-4.7785-.5821-1.8474-.5519-4.2043.202-5.9885 1.4886-3.52651 4.9589-5.00827 8.585-4.43886 2.3379.36667 4.0927 1.53191 5.2643 3.49576 1.3359 2.2372 1.3932 5.4013.3244 7.7145-1.6588 3.5912-5.5903 4.8837-9.2975 3.9956zm5.3358-6.7682c.1591-1.6241-.1224-3.4246-1.6938-4.2156-.5937-.2987-1.1832-.4001-1.7685-.3041-1.3614.2232-2.2144 1.0401-2.559 2.4507-.5169 2.111.1734 4.9888 2.7912 5.094 1.7558.0695 3.0599-1.2828 3.2301-3.025z"/><path d="m86.1384 8.52343c1.5268-1.91368 4.1017-2.47177 6.3585-1.76971 2.5653.7975 3.8106 3.30158 3.8249 6.00148.0106 2.0177.0132 4.2436.0079 6.6776-.001.7938-.2984 1.4246-.8922 1.8927-1.1737.9269-2.947.4691-3.483-.9803-.1113-.2998-.1664-.6212-.1654-.9641.0085-1.966.0085-3.8813 0-5.7459-.001-.3979-.0482-.7964-.1415-1.1954-.3976-1.6986-2.0596-2.4168-3.6198-1.9703-1.3439.385-1.961 1.5885-1.9689 2.9344-.0085 1.9066-.0096 3.8117-.0032 5.7151.0032.9884-.2306 1.7438-1.0513 2.31-.8206.5646-1.8926.4934-2.6719-.1342-.5704-.4605-.8546-1.1098-.8524-1.9477.0084-3.3766.0127-6.8286.0127-10.35617 0-2.84868 4.2527-3.30162 4.5517-.49662.0014.01067.0058.02077.0126.02903s.0158.01433.0258.01743c.01.00311.0206.00312.0305.00003.0098-.00308.0185-.00912.025-.01737z"/><path d="m22.7859 8.483c.0095.13156.0535.1445.132.03882 1.1133-1.48985 3.0567-2.12397 4.8809-1.99456 3.4083.24103 5.2341 2.93279 5.2532 6.25544.0148 2.7133.0138 5.4579-.0032 8.2338-.0048.6034-.4867.8412-1.0083.838-.9999-.0065-1.8847-.0108-2.6544-.013-.5503-.0032-.8684-.3995-.8716-.922-.0063-2.2399-.0031-4.4928.0096-6.7586.0063-.936-.0716-1.6095-.2338-2.0204-.9177-2.3375-4.3275-2.36824-5.2563-.0404-.1866.4691-.2768 1.1787-.2704 2.1288.0191 2.6141.0223 4.8982.0095 6.8523-.001.0885-.0259.096-.0747.0227-1.0518-1.5767-2.5123-2.3882-4.3816-2.4346-.0636-.0021-.0954-.0356-.0954-.1003l.0016-11.8088c0-.06794.0334-.10137.1002-.10029 1.161.02049 2.3336.02049 3.518 0 .6043-.00971.9908.44647.9463 1.04338-.0202.2599-.0207.5198-.0016.77971z"/><path d="m79.0054 13.3925c.017 3.9212.0127 6.456-.0127 7.6046-.0096.4416-.3849.8217-.8207.8136-.8747-.014-1.822-.014-2.842 0-.1962.0022-.3743-.0539-.5344-.1682-.2343-.1693-.3515-.4049-.3515-.7069.0159-4.7796.0133-9.5134-.0079-14.20133 0-.02746.0107-.05379.0298-.07321.0191-.01941.0449-.03032.0719-.03032l4.415.00323c.0177 0 .0347.00716.0473.0199.0125.01274.0195.03003.0195.04804-.018 2.40598-.0228 4.63619-.0143 6.69059z"/><path d="m56.975 17.1762c.0435.2222.0912.2233.1431.0033.6458-2.7651 1.2671-5.4693 1.864-8.11254.1378-.61147.2964-1.05794.4755-1.33941.4899-.76676 1.3074-1.14367 2.1996-1.1.5121.02427 1.0831-.0647 1.5618.11.8811.3203 1.4234.91235 1.627 1.77618.651 2.76077 1.3296 5.65637 2.0357 8.68677.0233.1003.0626.1068.1177.0194.0201-.0323.0387-.0944.0557-.186.475-2.5883.9993-5.349 1.5729-8.28238.123-.62872.2714-1.05578.4453-1.28117.8191-1.06442 2.2743-1.13721 3.1506-.11809.5566.64706.571 1.37985.3563 2.17573-.9575 3.54481-1.8757 6.98931-2.7546 10.33351-.3483 1.3281-1.3312 2.0124-2.6338 1.9493-.5709-.0259-1.2469.0841-1.7717-.1019-.8705-.3095-1.4128-.9108-1.627-1.8037-.6202-2.599-1.2288-5.1468-1.8258-7.6434-.053-.2221-.1065-.2227-.1606-.0016-.5641 2.296-1.1562 4.6966-1.7765 7.2018-.1442.5802-.2995 1.004-.466 1.2714-.501.8056-1.3614 1.1275-2.3077 1.079-.5709-.0291-1.1896.0744-1.7272-.1084-.8556-.2895-1.3995-.9463-1.6349-1.8392-.9108-3.4575-1.82-6.8502-2.7276-10.17828-.3234-1.18627-.0535-2.07706.8095-2.67235.9941-.68588 2.322-.41897 2.9805.61147.1622.25559.2847.59961.3674 1.03206.5566 2.9031 1.1069 5.7426 1.6508 8.5185z"/><path d="m130.295 16.0179c.046-.042.081-.0933.103-.1537.917-2.5267 1.792-4.9597 2.624-7.29878.202-.56833.423-.97975.663-1.23426.885-.94147 2.324-.92691 3.208.00485.697.7328.778 1.6953.393 2.60927-2.416 5.75132-4.832 11.52682-7.247 17.32662-.219.5252-.45.9016-.694 1.1291-1.797 1.6888-4.521-.3429-3.54-2.5688.609-1.3815 1.258-2.8482 1.948-4.4.041-.0895.042-.1796.003-.2702-1.664-4.0106-3.222-7.7717-4.674-11.28305-.464-1.12264.034-2.42323 1.067-2.97323.964-.5128 2.182-.28147 2.85.57103.209.26637.42.6972.632 1.2925.88 2.47285 1.753 4.88525 2.619 7.23735.002.0044.005.0083.008.0114.004.0031.008.0053.012.0064.005.0011.009.0011.013 0 .005-.0011.009-.0034.012-.0065z"/><path clip-rule="evenodd" d="m4.99708 9.7528c-.06256.18226-.06945.3381-.02067.4675.02438.0636.06149.0723.11132.0259.03711-.0345.05832-.0976.06362-.1893 1.16736-1.56371 2.34268-3.11719 3.52595-4.66042 1.20871-1.57451 2.7392-2.55373 4.5915-2.93765.5323-.11108 1.0523-.17632 1.5602-.19574.2343-.00862.4363.06201.606.21192.5089.45078.5338.97166.0747 1.56264-2.0039 2.58177-4.0158 5.16569-6.0356 7.75175-.01419.0184-.02192.0411-.02192.0643s.00773.0456.02192.0635l5.6825 7.3328c.0446.0582.0382.1095-.019.1537-.7878.605-1.3455 1.3728-1.6732 2.3035-.0254.0723-.0763.1068-.1526.1035-.4231-.0151-.8589-.0156-1.3074-.0016-.5916.0194-1.2055-.2701-1.5347-.7117-1.77173-2.378-3.54822-4.7511-5.32948-7.1193-.00663-.0146-.01339-.0282-.02028-.0409.00689.0127.01363.0263.02025.0409l-.05407-.0097c-.03181-.0044-.05354.0091-.06521.0404l-.02385.0679c.00001.0001.00001.0001.00002.0001.00848 2.1806.00689 4.3638-.00477 6.5498-.00212.3128-.05567.5457-.16063.6988-.17654.2621-.47077.4773-.79044.4756-.93622-.0021-1.91486-.0005-2.9359.0049-.68229.0048-1.10534-.5015-1.10534-1.1744.00212055-6.022.00477112-12.11081.00795195-18.26649-.00000393-.02246.00865825-.04403.02412365-.06006.0154655-.01604.0364991-.02526.0585779-.02568 1.2967165-.00971 2.5706365-.00809 3.8217665.00485.3764.00324.66426.13535.86359.39633.14208.18441.21365.48259.21471.89456.00848 2.06411.0106 4.12338.00636 6.17779z" fill-rule="evenodd"/><path d="m18.2035 26.4372c1.5072-.0026 2.7272-1.1361 2.7248-2.5316s-1.2263-2.5246-2.7335-2.5219c-1.5073.0027-2.7272 1.1361-2.7248 2.5316s1.2262 2.5246 2.7335 2.5219z"/></g></svg>