<svg fill="none" height="24" viewBox="0 0 21 24" width="21" xmlns="http://www.w3.org/2000/svg"><path clip-rule="evenodd" d="m4.99708 7.49041c-.06256.18226-.06945.33809-.02067.4675.02438.06363.06149.07226.11132.02588.03711-.03451.05832-.0976.06362-.18926 1.16736-1.56373 2.34268-3.11721 3.52595-4.66044 1.20871-1.57451 2.7392-2.553729 4.5915-2.93765.5323-.1110786 1.0523-.1763236 1.5602-.19573532.2343-.00862745.4363.06200942.606.21191132.5089.450784.5338.971664.0747 1.562644-2.0039 2.58177-4.0158 5.16569-6.0356 7.75177-.01419.01839-.02192.04104-.02192.06425 0 .0232.00773.0456.02192.06354l5.6825 7.33278c.0446.0583.0382.1095-.019.1537-.7878.605-1.3455 1.3728-1.6732 2.3035-.0254.0723-.0763.1068-.1526.1036-.4231-.0151-.8589-.0157-1.3074-.0017-.5916.0194-1.2055-.2701-1.5347-.7117-1.77173-2.378-3.54822-4.7511-5.32948-7.1193-.00663-.0146-.01339-.0282-.02028-.0408.00689.0126.01363.0262.02025.0408l-.05407-.0097c-.03181-.0043-.05354.0091-.06521.0404l-.02385.068h.00002c.00848 2.1806.00689 4.3639-.00477 6.5498-.00212.3128-.05567.5457-.16063.6989-.17654.262-.47077.4772-.79044.4755-.93622-.0021-1.91486-.0005-2.9359.0049-.68229.0049-1.10534-.5015-1.10534-1.1744.00212055-6.022.00477112-12.1108.00795195-18.266483-.00000393-.0224613.00865825-.0440271.02412365-.0600599.0154655-.0160328.0364991-.0252524.0585779-.0256762 1.2967165-.00970588 2.5706365-.00808781 3.8217665.0048534.3764.0032353.66426.1353427.86359.3963227.14208.184412.21365.482598.21471.894563.00848 2.06411.0106 4.12338.00636 6.17779z" fill="#000" fill-rule="evenodd"/><path d="m18.2034 23.1748c1.5073-.0026 2.7272-1.1361 2.7248-2.5316s-1.2262-2.5246-2.7335-2.5219c-1.5072.0027-2.7272 1.1361-2.7248 2.5316s1.2262 2.5246 2.7335 2.5219z" fill="#4995ed"/></svg>