<svg width="21" height="24" viewBox="0 0 21 24" fill="none" xmlns="http://www.w3.org/2000/svg">
<path fill-rule="evenodd" clip-rule="evenodd" d="M4.99708 7.49041C4.93452 7.67267 4.92763 7.8285 4.97641 7.95791C5.00079 8.02154 5.0379 8.03017 5.08773 7.98379C5.12484 7.94928 5.14605 7.88619 5.15135 7.79453C6.31871 6.2308 7.49403 4.67732 8.6773 3.13409C9.88601 1.55958 11.4165 0.580361 13.2688 0.19644C13.8011 0.0853614 14.3211 0.0201164 14.829 0.00070468C15.0633 -0.00792277 15.2653 0.0627141 15.435 0.212616C15.9439 0.6634 15.9688 1.18428 15.5097 1.77526C13.5058 4.35703 11.4939 6.94095 9.4741 9.52703C9.45991 9.54542 9.45218 9.56807 9.45218 9.59128C9.45218 9.61448 9.45991 9.63688 9.4741 9.65482L15.1566 16.9876C15.1638 16.997 15.1792 17.0156 15.1996 17.0404L15.1996 17.0404C15.3055 17.1689 15.548 17.4629 15.5 17.5C15.5191 18.2127 15.5 18.5 14.5 19C14.5 19 13.5 19.5 13.3118 19.5484C13.1915 19.5479 13.067 19.5463 12.9397 19.5447C12.6377 19.5409 12.3199 19.5369 12.0044 19.5467C11.4128 19.5661 10.7989 19.2766 10.4697 18.835C8.69797 16.457 6.92148 14.0839 5.14022 11.7157C5.13359 11.7011 5.12683 11.6875 5.11994 11.6749C5.12683 11.6875 5.13357 11.7011 5.14019 11.7157L5.08612 11.706C5.05431 11.7017 5.03258 11.7151 5.02091 11.7464L4.99706 11.8144C4.99707 11.8144 4.99707 11.8144 4.99708 11.8144C5.00556 13.995 5.00397 16.1783 4.99231 18.3642C4.99019 18.677 4.93664 18.9099 4.83168 19.0631C4.65514 19.3251 4.36091 19.5403 4.04124 19.5386C3.10502 19.5365 2.12638 19.5381 1.10534 19.5435C0.42305 19.5484 0 19.042 0 18.3691C0.00212055 12.3471 0.00477112 6.2583 0.00795195 0.102617C0.00794802 0.0801557 0.0166102 0.0585899 0.0320756 0.0425571C0.0475411 0.0265243 0.0685747 0.0173047 0.0906535 0.0168809C1.38737 0.00717502 2.66129 0.00879309 3.91242 0.0217343C4.28882 0.0249696 4.57668 0.157077 4.77601 0.418057C4.91809 0.602469 4.98966 0.900655 4.99072 1.31262C4.9992 3.37673 5.00132 5.436 4.99708 7.49041Z" fill="white"/>
<path d="M18.2034 23.1748C19.7107 23.1722 20.9306 22.0387 20.9282 20.6432C20.9258 19.2477 19.702 18.1186 18.1947 18.1213C16.6875 18.124 15.4675 19.2574 15.4699 20.6529C15.4723 22.0484 16.6961 23.1775 18.2034 23.1748Z" fill="#4995ED"/>
</svg>
