<svg width="146" height="44" viewBox="0 0 146 44" fill="none" xmlns="http://www.w3.org/2000/svg">
<path d="M80.7204 15.0648C82.2294 15.0675 83.4547 13.937 83.4571 12.5397C83.4595 11.1424 82.2381 10.0075 80.7291 10.0049C79.2201 10.0022 77.9948 11.1327 77.9924 12.53C77.99 13.9273 79.2114 15.0622 80.7204 15.0648Z" fill="black"/>
<path d="M122.499 11.6968L122.387 11.697C121.158 11.6992 120.163 12.7149 120.165 13.9657L120.191 29.5307C120.194 30.7814 121.192 31.7936 122.422 31.7914L122.533 31.7912C123.763 31.789 124.758 30.7733 124.756 29.5226L124.729 13.9576C124.727 12.7068 123.728 11.6947 122.499 11.6968Z" fill="black"/>
<path d="M113.163 18.6059C113.266 16.7974 115.421 16.0824 116.756 17.0643C117.366 17.514 117.711 18.1999 117.713 18.9521C117.715 23.8406 117.715 28.1484 117.713 31.8755C117.713 32.68 117.599 33.4834 117.371 34.2857C116.571 37.1166 114.407 38.896 111.566 39.2082C108.452 39.5496 105.263 38.8362 103.439 36.146C102.777 35.1706 103.181 34.0916 104.198 33.6241C104.945 33.2823 105.673 33.3065 106.38 33.6969C106.867 33.9665 107.355 34.2739 107.841 34.619C108.467 35.0633 109.184 35.2806 109.993 35.2709C111.626 35.2504 112.628 34.5273 112.999 33.1016C113.261 32.0938 113.149 30.8499 113.166 29.7935C113.166 29.7808 113.162 29.7684 113.155 29.7581C113.148 29.7478 113.137 29.7401 113.126 29.7361C113.114 29.7322 113.101 29.7321 113.089 29.7361C113.077 29.74 113.067 29.7477 113.059 29.758C111.932 31.3335 110.349 32.0857 108.31 32.0146C105.408 31.9159 103.138 29.9149 102.354 27.1099C101.422 23.7743 102.017 19.3322 105.223 17.3538C107.732 15.8074 111.186 16.0937 113.055 18.6399C113.12 18.7294 113.156 18.7181 113.163 18.6059ZM109.901 28.0108C110.337 28.0077 110.767 27.9066 111.167 27.7132C111.568 27.5198 111.931 27.2379 112.236 26.8836C112.542 26.5293 112.783 26.1096 112.946 25.6484C113.109 25.1872 113.192 24.6935 113.188 24.1956C113.181 23.19 112.826 22.228 112.2 21.5214C111.573 20.8147 110.728 20.4212 109.849 20.4275C109.414 20.4305 108.984 20.5317 108.584 20.7251C108.183 20.9185 107.82 21.2004 107.515 21.5546C107.209 21.9089 106.968 22.3286 106.805 22.7898C106.642 23.2511 106.559 23.7447 106.563 24.2426C106.57 25.2483 106.925 26.2102 107.551 26.9169C108.178 27.6235 109.023 28.017 109.901 28.0108Z" fill="black"/>
<path d="M44.0816 31.746C41.6944 31.1734 39.7557 29.3568 39.0034 26.9675C38.4213 25.1201 38.4515 22.7632 39.2054 20.979C40.694 17.4525 44.1643 15.9707 47.7904 16.5401C50.1283 16.9068 51.8831 18.0721 53.0547 20.0359C54.3906 22.2731 54.4479 25.4372 53.3791 27.7504C51.7203 31.3416 47.7888 32.6341 44.0816 31.746ZM49.4174 24.9778C49.5765 23.3537 49.295 21.5532 47.7236 20.7622C47.1299 20.4635 46.5404 20.3621 45.9551 20.4581C44.5937 20.6813 43.7407 21.4982 43.3961 22.9088C42.8792 25.0198 43.5695 27.8976 46.1873 28.0028C47.9431 28.0723 49.2472 26.72 49.4174 24.9778Z" fill="black"/>
<path d="M90.1384 18.5234C91.6652 16.6098 94.2401 16.0517 96.4969 16.7537C99.0622 17.5512 100.307 20.0553 100.322 22.7552C100.332 24.7729 100.335 26.9988 100.33 29.4328C100.329 30.2266 100.031 30.8574 99.4375 31.3255C98.2638 32.2524 96.4905 31.7946 95.9545 30.3452C95.8432 30.0454 95.7881 29.724 95.7891 29.3811C95.7976 27.4151 95.7976 25.4998 95.7891 23.6352C95.7881 23.2373 95.7409 22.8388 95.6476 22.4398C95.25 20.7412 93.588 20.023 92.0278 20.4695C90.6839 20.8545 90.0668 22.058 90.0589 23.4039C90.0504 25.3105 90.0493 27.2156 90.0557 29.119C90.0589 30.1074 89.8251 30.8628 89.0044 31.429C88.1838 31.9936 87.1118 31.9224 86.3325 31.2948C85.7621 30.8343 85.4779 30.185 85.4801 29.3471C85.4885 25.9705 85.4928 22.5185 85.4928 18.9909C85.4928 16.1423 89.7455 15.6893 90.0445 18.4943C90.0459 18.505 90.0503 18.5151 90.0571 18.5233C90.0639 18.5316 90.0729 18.5377 90.0829 18.5408C90.0929 18.5439 90.1035 18.5439 90.1134 18.5408C90.1232 18.5377 90.1319 18.5317 90.1384 18.5234Z" fill="black"/>
<path d="M26.7859 18.483C26.7954 18.6146 26.8394 18.6275 26.9179 18.5218C28.0312 17.032 29.9746 16.3978 31.7988 16.5273C35.2071 16.7683 37.0329 19.4601 37.052 22.7827C37.0668 25.496 37.0658 28.2406 37.0488 31.0165C37.044 31.6199 36.5621 31.8577 36.0405 31.8545C35.0406 31.848 34.1558 31.8437 33.3861 31.8415C32.8358 31.8383 32.5177 31.442 32.5145 30.9195C32.5082 28.6796 32.5114 26.4267 32.5241 24.1609C32.5304 23.2249 32.4525 22.5514 32.2903 22.1405C31.3726 19.803 27.9628 19.7723 27.034 22.1001C26.8474 22.5692 26.7572 23.2788 26.7636 24.2289C26.7827 26.843 26.7859 29.1271 26.7731 31.0812C26.7721 31.1697 26.7472 31.1772 26.6984 31.1039C25.6466 29.5272 24.1861 28.7157 22.3168 28.6693C22.2532 28.6672 22.2214 28.6337 22.2214 28.569L22.223 16.7602C22.223 16.6923 22.2564 16.6588 22.3232 16.6599C23.4842 16.6804 24.6568 16.6804 25.8412 16.6599C26.4455 16.6502 26.832 17.1064 26.7875 17.7033C26.7673 17.9632 26.7668 18.2231 26.7859 18.483Z" fill="black"/>
<path d="M83.0054 23.3925C83.0224 27.3137 83.0181 29.8485 82.9927 30.9971C82.9831 31.4387 82.6078 31.8188 82.172 31.8107C81.2973 31.7967 80.35 31.7967 79.33 31.8107C79.1338 31.8129 78.9557 31.7568 78.7956 31.6425C78.5613 31.4732 78.4441 31.2376 78.4441 30.9356C78.46 26.156 78.4574 21.4222 78.4362 16.7343C78.4362 16.7068 78.4469 16.6805 78.466 16.6611C78.4851 16.6416 78.5109 16.6307 78.5379 16.6307L82.9529 16.634C82.9706 16.634 82.9876 16.6411 83.0002 16.6539C83.0127 16.6666 83.0197 16.6839 83.0197 16.7019C83.0017 19.1079 82.9969 21.3381 83.0054 23.3925Z" fill="black"/>
<path d="M60.975 27.1762C61.0185 27.3984 61.0662 27.3995 61.1181 27.1795C61.7639 24.4144 62.3852 21.7102 62.9821 19.067C63.1199 18.4555 63.2785 18.009 63.4576 17.7276C63.9475 16.9608 64.765 16.5839 65.6572 16.6276C66.1693 16.6518 66.7403 16.5628 67.219 16.7376C68.1001 17.0578 68.6424 17.6499 68.846 18.5137C69.497 21.2745 70.1756 24.1701 70.8817 27.2005C70.905 27.3008 70.9443 27.3073 70.9994 27.2199C71.0195 27.1876 71.0381 27.1255 71.0551 27.0339C71.5301 24.4456 72.0544 21.6849 72.628 18.7515C72.751 18.1228 72.8994 17.6957 73.0733 17.4703C73.8924 16.4059 75.3476 16.3331 76.2239 17.3523C76.7805 17.9993 76.7949 18.7321 76.5802 19.528C75.6227 23.0728 74.7045 26.5173 73.8256 29.8615C73.4773 31.1896 72.4944 31.8739 71.1918 31.8108C70.6209 31.7849 69.9449 31.8949 69.4201 31.7089C68.5496 31.3994 68.0073 30.7981 67.7931 29.9052C67.1729 27.3062 66.5643 24.7584 65.9673 22.2618C65.9143 22.0397 65.8608 22.0391 65.8067 22.2602C65.2426 24.5562 64.6505 26.9568 64.0302 29.462C63.886 30.0422 63.7307 30.466 63.5642 30.7334C63.0632 31.539 62.2028 31.8609 61.2565 31.8124C60.6856 31.7833 60.0669 31.8868 59.5293 31.704C58.6737 31.4145 58.1298 30.7577 57.8944 29.8648C56.9836 26.4073 56.0744 23.0146 55.1668 19.6865C54.8434 18.5002 55.1133 17.6095 55.9763 17.0142C56.9704 16.3283 58.2983 16.5952 58.9568 17.6256C59.119 17.8812 59.2415 18.2252 59.3242 18.6577C59.8808 21.5608 60.4311 24.4003 60.975 27.1762Z" fill="black"/>
<path d="M134.295 26.0179C134.341 25.9759 134.376 25.9246 134.398 25.8642C135.315 23.3375 136.19 20.9045 137.022 18.5654C137.224 17.9971 137.445 17.5857 137.685 17.3312C138.57 16.3897 140.009 16.4042 140.893 17.336C141.59 18.0688 141.671 19.0313 141.286 19.9453C138.87 25.6966 136.454 31.4721 134.039 37.2719C133.82 37.7971 133.589 38.1735 133.345 38.401C131.548 40.0898 128.824 38.0581 129.805 35.8322C130.414 34.4507 131.063 32.984 131.753 31.4322C131.794 31.3427 131.795 31.2526 131.756 31.162C130.092 27.1514 128.534 23.3903 127.082 19.879C126.618 18.7563 127.116 17.4557 128.149 16.9057C129.113 16.3929 130.331 16.6242 130.999 17.4767C131.208 17.7431 131.419 18.174 131.631 18.7692C132.511 21.2421 133.384 23.6545 134.25 26.0066C134.252 26.011 134.255 26.0149 134.258 26.018C134.262 26.0211 134.266 26.0233 134.27 26.0244C134.275 26.0255 134.279 26.0255 134.283 26.0244C134.288 26.0233 134.292 26.021 134.295 26.0179Z" fill="black"/>
<path fill-rule="evenodd" clip-rule="evenodd" d="M8.99708 19.7528C8.93452 19.9351 8.92763 20.0909 8.97641 20.2203C9.00079 20.2839 9.0379 20.2926 9.08773 20.2462C9.12484 20.2117 9.14605 20.1486 9.15135 20.0569C10.3187 18.4932 11.494 16.9397 12.6773 15.3965C13.886 13.822 15.4165 12.8428 17.2688 12.4588C17.8011 12.3478 18.3211 12.2825 18.829 12.2631C19.0633 12.2545 19.2653 12.3251 19.435 12.475C19.9439 12.9258 19.9688 13.4467 19.5097 14.0377C17.5058 16.6194 15.4939 19.2033 13.4741 21.7894C13.4599 21.8078 13.4522 21.8305 13.4522 21.8537C13.4522 21.8769 13.4599 21.8993 13.4741 21.9172L19.1566 29.25C19.2012 29.3082 19.1948 29.3595 19.1376 29.4037C18.3498 30.0087 17.7921 30.7765 17.4644 31.7072C17.439 31.7795 17.3881 31.814 17.3118 31.8107C16.8887 31.7956 16.4529 31.7951 16.0044 31.8091C15.4128 31.8285 14.7989 31.539 14.4697 31.0974C12.698 28.7194 10.9215 26.3463 9.14022 23.9781C9.13359 23.9635 9.12683 23.9499 9.11994 23.9372C9.12683 23.9499 9.13357 23.9635 9.14019 23.9781L9.08612 23.9684C9.05431 23.964 9.03258 23.9775 9.02091 24.0088L8.99706 24.0767C8.99707 24.0768 8.99707 24.0768 8.99708 24.0768C9.00556 26.2574 9.00397 28.4406 8.99231 30.6266C8.99019 30.9394 8.93664 31.1723 8.83168 31.3254C8.65514 31.5875 8.36091 31.8027 8.04124 31.801C7.10502 31.7989 6.12638 31.8005 5.10534 31.8059C4.42305 31.8107 4 31.3044 4 30.6315C4.00212 24.6095 4.00477 18.5207 4.00795 12.365C4.00795 12.3425 4.01661 12.321 4.03208 12.3049C4.04754 12.2889 4.06857 12.2797 4.09065 12.2793C5.38737 12.2696 6.66129 12.2712 7.91242 12.2841C8.28882 12.2874 8.57668 12.4195 8.77601 12.6804C8.91809 12.8649 8.98966 13.163 8.99072 13.575C8.9992 15.6391 9.00132 17.6984 8.99708 19.7528Z" fill="black"/>
<path d="M22.2035 36.4372C23.7107 36.4346 24.9307 35.3011 24.9283 33.9056C24.9259 32.5101 23.702 31.381 22.1948 31.3837C20.6875 31.3864 19.4676 32.5198 19.47 33.9153C19.4724 35.3108 20.6962 36.4399 22.2035 36.4372Z" fill="#4995ED"/>
</svg>
